<svg width="128" height="39" viewBox="0 0 128 39" fill="none" xmlns="http://www.w3.org/2000/svg">
<path fill-rule="evenodd" clip-rule="evenodd" d="M0.0220104 14.9864C0.852539 17.3812 3.04699 18.6427 8.75715 15.4239C14.7611 12.0394 20.6779 8.70803 24.7747 6.40236C24.7594 6.37699 24.7441 6.35165 24.7286 6.32634C19.5797 -2.10878 7.35352 -2.10878 2.20459 6.32635C0.588009 8.97468 -0.139518 11.9994 0.0220104 14.9864Z" fill="#FEC23D"/>
<path d="M4.0272 17.2009C4.0272 17.2009 5.28156 17.4902 10.1876 14.5702C14.5434 12.1218 18.8359 9.71181 21.808 8.04382C21.797 8.02545 21.7858 8.0071 21.7746 7.98878C18.0391 1.88655 9.1692 1.88655 5.43372 7.98878C4.26095 9.9046 3.91006 15.04 4.0272 17.2009Z" fill="#FD9640"/>
<path d="M3.88841 24.3296C4.61417 22.9333 8.03911 17.6888 8.03911 20.1712C8.03911 20.6521 8.3278 21.9986 9.09767 21.9986C9.42773 21.9986 10.0942 21.3311 10.8531 20.5712C11.96 19.4627 13.2633 18.1574 14.0055 18.44C14.3059 18.5543 14.3769 19.0182 14.441 19.437C14.5002 19.8233 14.5534 20.1712 14.7754 20.1712C14.9811 20.1712 15.4797 19.2379 16.0974 18.0817C17.214 15.9916 18.7196 13.1732 19.587 13.8234C19.9216 14.0742 20.1613 14.4793 20.3649 14.8234C20.5712 15.1722 20.7406 15.4585 20.9343 15.4585C21.2873 15.4585 21.7682 14.5798 22.2987 13.6103C23.07 12.201 23.9462 10.5999 24.6874 11.2266C25.9384 12.2846 26.4196 13.8234 26.4196 13.8234C26.4196 13.8234 26.8821 13.5345 27.0005 12.1506C26.689 10.4448 26.0406 8.75657 25.0552 7.12514V7.12329C25.0552 7.12329 25.0501 7.11672 25.0552 7.12514C20.9533 9.42743 15.0292 12.7539 9.01779 16.1334C4.31079 18.7796 2.16677 19.9281 1.09198 18.9169C1.03021 18.8588 0.957297 18.7941 0.918033 18.8204C0.873152 18.8505 0.890899 18.9271 0.917985 19.0041C1.10869 19.5224 1.56501 20.5278 1.85196 20.9998C2.00806 21.2565 2.20617 21.5812 2.4571 21.9911L3.88841 24.3296Z" fill="#F7F7F7"/>
<path d="M22.6973 25.8694C22.5202 25.2233 22.1646 24.5803 21.194 24.6291C20.0816 24.6849 19.4215 26.1364 18.8384 27.4186C18.4177 28.3437 18.0371 29.1806 17.5555 29.3419C16.9447 29.5464 16.9562 29.0715 16.9716 28.4372C16.9852 27.8783 17.0017 27.1956 16.598 26.7451C16.0591 26.1436 14.9959 27.6486 13.9236 29.1665C13.2813 30.0757 12.6358 30.9894 12.0978 31.4578C11.4022 32.0634 11.4028 31.383 11.4035 30.6186C11.4042 29.8047 11.4051 28.8955 10.5657 29.3419C9.59701 29.857 9.34537 31.6104 9.3457 33.0422L11.7138 36.9307C12.6847 38.525 14.9902 38.525 15.9611 36.9307L22.6973 25.8694Z" fill="#0450C2"/>
<path d="M32.5401 19.9599C32.4074 19.7515 32.2843 19.4675 32.1706 19.1076C32.0569 18.7478 32 18.369 32 17.9713C32 17.2327 32.1611 16.7025 32.4832 16.3805C32.8244 16.0586 33.2602 15.8976 33.7909 15.8976H46.1847C46.3173 16.1059 46.4405 16.39 46.5542 16.7498C46.6679 17.1096 46.7248 17.4884 46.7248 17.8861C46.7248 18.6247 46.5542 19.155 46.2131 19.4769C45.8909 19.7989 45.4646 19.9599 44.9339 19.9599H41.7786V33.0842C41.5702 33.141 41.2385 33.1978 40.7837 33.2546C40.3478 33.3114 39.912 33.3398 39.4761 33.3398C39.0402 33.3398 38.6517 33.302 38.3106 33.2262C37.9885 33.1694 37.7137 33.0558 37.4863 32.8853C37.2589 32.7149 37.0883 32.4781 36.9746 32.1751C36.8609 31.8721 36.804 31.4744 36.804 30.982V19.9599H32.5401Z" fill="#0450C2"/>
<path d="M52.4562 33.1694C52.2667 33.2262 51.9635 33.283 51.5466 33.3398C51.1486 33.3967 50.7317 33.4251 50.2958 33.4251C49.8789 33.4251 49.4999 33.3967 49.1588 33.3398C48.8366 33.283 48.5618 33.1694 48.3344 32.9989C48.107 32.8285 47.927 32.6012 47.7943 32.3172C47.6806 32.0142 47.6238 31.6259 47.6238 31.1525V22.6302C47.6238 22.1946 47.6996 21.8253 47.8512 21.5223C48.0217 21.2003 48.2586 20.9163 48.5618 20.6701C48.865 20.4239 49.2346 20.2061 49.6704 20.0167C50.1253 19.8084 50.6085 19.6284 51.1202 19.4769C51.6319 19.3254 52.1625 19.2118 52.7121 19.136C53.2616 19.0413 53.8112 18.994 54.3608 18.994C55.2704 18.994 55.9905 19.1739 56.5212 19.5337C57.0518 19.8746 57.3171 20.4428 57.3171 21.2382C57.3171 21.5033 57.2792 21.7685 57.2034 22.0336C57.1276 22.2798 57.0328 22.5071 56.9191 22.7154C56.5212 22.7154 56.1137 22.7343 55.6968 22.7722C55.2799 22.8101 54.8724 22.8669 54.4745 22.9427C54.0765 23.0184 53.6975 23.1036 53.3374 23.1983C52.9963 23.2741 52.7026 23.3688 52.4562 23.4824V33.1694Z" fill="#0450C2"/>
<path d="M59.197 15.5567C59.197 14.837 59.4339 14.231 59.9077 13.7386C60.4004 13.2462 61.0447 13 61.8406 13C62.6366 13 63.2714 13.2462 63.7452 13.7386C64.2379 14.231 64.4843 14.837 64.4843 15.5567C64.4843 16.2763 64.2379 16.8824 63.7452 17.3748C63.2714 17.8672 62.6366 18.1134 61.8406 18.1134C61.0447 18.1134 60.4004 17.8672 59.9077 17.3748C59.4339 16.8824 59.197 16.2763 59.197 15.5567ZM64.2569 33.1694C64.0484 33.2073 63.7357 33.2546 63.3188 33.3114C62.9208 33.3872 62.5134 33.4251 62.0965 33.4251C61.6796 33.4251 61.3005 33.3967 60.9594 33.3398C60.6373 33.283 60.3625 33.1694 60.1351 32.9989C59.9077 32.8285 59.7276 32.6012 59.595 32.3172C59.4813 32.0142 59.4244 31.6259 59.4244 31.1525V19.5906C59.6329 19.5527 59.9361 19.5053 60.3341 19.4485C60.751 19.3728 61.1679 19.3349 61.5848 19.3349C62.0017 19.3349 62.3713 19.3633 62.6934 19.4201C63.0345 19.4769 63.3188 19.5906 63.5462 19.761C63.7736 19.9315 63.9442 20.1682 64.0579 20.4712C64.1905 20.7553 64.2569 21.134 64.2569 21.6075V33.1694Z" fill="#0450C2"/>
<path d="M73.6724 18.9656C74.8094 18.9656 75.8612 19.1171 76.8277 19.4201C77.8131 19.7042 78.6565 20.1492 79.3576 20.7553C80.0588 21.3613 80.6084 22.1283 81.0064 23.0563C81.4043 23.9653 81.6033 25.0543 81.6033 26.3232C81.6033 27.5352 81.4327 28.5958 81.0916 29.5048C80.7505 30.4139 80.2673 31.1809 79.6419 31.8058C79.0165 32.4119 78.2585 32.8664 77.3678 33.1694C76.4961 33.4724 75.5201 33.6239 74.4399 33.6239C73.625 33.6239 72.867 33.5008 72.1658 33.2546V37.9703C71.9763 38.0271 71.6731 38.0839 71.2562 38.1407C70.8392 38.2165 70.4128 38.2544 69.977 38.2544C69.5601 38.2544 69.181 38.2259 68.8399 38.1691C68.5178 38.1123 68.243 37.9987 68.0156 37.8282C67.7882 37.6578 67.6176 37.4211 67.5039 37.118C67.3902 36.834 67.3333 36.4552 67.3333 35.9817V22.3461C67.3333 21.8348 67.4376 21.4181 67.646 21.0962C67.8734 20.7742 68.1767 20.4807 68.5557 20.2155C69.1431 19.8368 69.8727 19.5337 70.7445 19.3065C71.6162 19.0792 72.5922 18.9656 73.6724 18.9656ZM73.7292 29.8173C75.6812 29.8173 76.6571 28.6526 76.6571 26.3232C76.6571 25.1111 76.4108 24.2115 75.9181 23.6244C75.4443 23.0374 74.7526 22.7438 73.8429 22.7438C73.4829 22.7438 73.1607 22.7912 72.8765 22.8858C72.5922 22.9616 72.3458 23.0563 72.1374 23.1699V29.4196C72.3648 29.5332 72.6111 29.6279 72.8765 29.7037C73.1418 29.7794 73.426 29.8173 73.7292 29.8173Z" fill="#0450C2"/>
<path d="M83.9616 19.5906C84.1511 19.5337 84.4448 19.4769 84.8428 19.4201C85.2597 19.3633 85.6861 19.3349 86.122 19.3349C86.5389 19.3349 86.9084 19.3633 87.2306 19.4201C87.5717 19.4769 87.856 19.5906 88.0834 19.761C88.3108 19.9315 88.4813 20.1682 88.595 20.4712C88.7277 20.7553 88.794 21.134 88.794 21.6075V27.7151C88.794 28.4916 88.9835 29.0503 89.3626 29.3912C89.7416 29.7131 90.2911 29.8741 91.0113 29.8741C91.4471 29.8741 91.7977 29.8362 92.063 29.7605C92.3473 29.6847 92.5652 29.609 92.7168 29.5332V19.5906C92.9063 19.5337 93.2001 19.4769 93.5981 19.4201C94.015 19.3633 94.4414 19.3349 94.8772 19.3349C95.2941 19.3349 95.6637 19.3633 95.9859 19.4201C96.327 19.4769 96.6112 19.5906 96.8386 19.761C97.066 19.9315 97.2366 20.1682 97.3503 20.4712C97.483 20.7553 97.5493 21.134 97.5493 21.6075V30.2434C97.5493 31.1903 97.1513 31.9005 96.3554 32.374C95.6921 32.7906 94.8962 33.1031 93.9676 33.3114C93.058 33.5387 92.063 33.6523 90.9828 33.6523C89.9595 33.6523 89.012 33.5387 88.1402 33.3114C87.2874 33.0842 86.5484 32.7338 85.923 32.2603C85.2976 31.7869 84.8144 31.1809 84.4732 30.4423C84.1321 29.6847 83.9616 28.7757 83.9616 27.7151V19.5906Z" fill="#0450C2"/>
<path d="M112.161 29.0787C112.161 30.518 111.621 31.6449 110.541 32.4592C109.461 33.2736 107.869 33.6807 105.765 33.6807C104.969 33.6807 104.23 33.6239 103.548 33.5103C102.866 33.3967 102.278 33.2262 101.786 32.9989C101.312 32.7527 100.933 32.4497 100.649 32.0899C100.383 31.7301 100.251 31.304 100.251 30.8116C100.251 30.357 100.345 29.9783 100.535 29.6753C100.724 29.3533 100.952 29.0882 101.217 28.8798C101.767 29.1829 102.392 29.4575 103.093 29.7037C103.813 29.9309 104.638 30.0446 105.566 30.0446C106.154 30.0446 106.599 29.9593 106.902 29.7889C107.225 29.6184 107.386 29.3912 107.386 29.1071C107.386 28.842 107.272 28.6336 107.045 28.4821C106.817 28.3306 106.438 28.2075 105.907 28.1128L105.055 27.9424C103.406 27.6204 102.174 27.1186 101.359 26.4368C100.563 25.7361 100.165 24.7418 100.165 23.454C100.165 22.7533 100.317 22.1188 100.62 21.5507C100.923 20.9825 101.35 20.5091 101.899 20.1303C102.449 19.7515 103.103 19.458 103.861 19.2497C104.638 19.0413 105.491 18.9372 106.419 18.9372C107.12 18.9372 107.774 18.994 108.381 19.1076C109.006 19.2023 109.546 19.3538 110.001 19.5622C110.456 19.7705 110.816 20.0451 111.081 20.386C111.346 20.7079 111.479 21.0962 111.479 21.5507C111.479 21.9863 111.394 22.365 111.223 22.687C111.072 22.99 110.873 23.2457 110.626 23.454C110.475 23.3593 110.247 23.2646 109.944 23.1699C109.641 23.0563 109.309 22.9616 108.949 22.8858C108.589 22.7912 108.219 22.7154 107.84 22.6586C107.48 22.6018 107.149 22.5734 106.846 22.5734C106.22 22.5734 105.737 22.6491 105.396 22.8006C105.055 22.9332 104.884 23.151 104.884 23.454C104.884 23.6623 104.979 23.8328 105.168 23.9653C105.358 24.0979 105.718 24.221 106.249 24.3346L107.13 24.5335C108.949 24.9501 110.238 25.5277 110.996 26.2663C111.773 26.986 112.161 27.9235 112.161 29.0787Z" fill="#0450C2"/>
<path d="M128 30.6979C127.905 31.588 127.64 32.2698 127.204 32.7433C126.787 33.2167 126.171 33.4535 125.356 33.4535C124.75 33.4535 124.21 33.3114 123.736 33.0274C123.262 32.7243 122.751 32.2225 122.201 31.5218L119.387 27.9992V33.1694C119.178 33.2073 118.866 33.2546 118.449 33.3114C118.051 33.3872 117.643 33.4251 117.226 33.4251C116.81 33.4251 116.431 33.3967 116.089 33.3398C115.767 33.283 115.492 33.1694 115.265 32.9989C115.038 32.8285 114.858 32.6012 114.725 32.3172C114.611 32.0142 114.554 31.6259 114.554 31.1525V14.7045C114.763 14.6476 115.066 14.5908 115.464 14.534C115.881 14.4583 116.298 14.4204 116.715 14.4204C117.132 14.4204 117.501 14.4488 117.823 14.5056C118.165 14.5624 118.449 14.676 118.676 14.8465C118.904 15.0169 119.074 15.2537 119.188 15.5567C119.321 15.8408 119.387 16.2195 119.387 16.693V24.1926L124.276 19.1929C125.262 19.1929 126.048 19.4106 126.636 19.8462C127.242 20.2818 127.545 20.831 127.545 21.4939C127.545 21.7779 127.498 22.0431 127.403 22.2893C127.308 22.5165 127.157 22.7533 126.948 22.9995C126.759 23.2457 126.503 23.5108 126.181 23.7949C125.878 24.06 125.517 24.3725 125.101 24.7323L123.452 26.1527L128 30.6979Z" fill="#0450C2"/>
</svg>
