<svg width="28" height="29" viewBox="0 0 28 29" fill="none" xmlns="http://www.w3.org/2000/svg">
<path fill-rule="evenodd" clip-rule="evenodd" d="M14.2312 26.7502H14.2289C12.921 26.749 11.6832 26.1727 10.744 25.1262C10.4209 24.768 10.45 24.2139 10.8094 23.8919C11.1687 23.5675 11.7217 23.5967 12.0449 23.9572C12.6492 24.6304 13.425 25.0002 14.23 25.0002H14.2312C15.0397 25.0002 15.819 24.6304 16.4245 23.956C16.7489 23.5979 17.3019 23.5687 17.66 23.8919C18.0194 24.215 18.0485 24.7692 17.7254 25.1274C16.7827 26.1739 15.5425 26.7502 14.2312 26.7502Z" fill="#235DFF"/>
<mask id="mask0_0_1" style="mask-type:luminance" maskUnits="userSpaceOnUse" x="3" y="1" width="23" height="21">
<path fill-rule="evenodd" clip-rule="evenodd" d="M3.5 1.66675H25.0797V21.9061H3.5V1.66675Z" fill="white"/>
</mask>
<g mask="url(#mask0_0_1)">
<path fill-rule="evenodd" clip-rule="evenodd" d="M14.2882 3.41675C10.2107 3.41675 7.36868 6.61108 7.36868 9.47758C7.36868 11.9031 6.69552 13.0242 6.10052 14.0136C5.62335 14.8081 5.24652 15.4357 5.24652 16.7996C5.44135 18.9999 6.89385 20.1561 14.2882 20.1561C21.6417 20.1561 23.1397 18.9486 23.3333 16.7237C23.3298 15.4357 22.953 14.8081 22.4758 14.0136C21.8808 13.0242 21.2077 11.9031 21.2077 9.47758C21.2077 6.61108 18.3657 3.41675 14.2882 3.41675ZM14.2882 21.9061C8.83285 21.9061 3.90252 21.5211 3.50002 16.8742C3.49652 14.9516 4.08335 13.9739 4.60135 13.1129C5.12518 12.2402 5.61868 11.4177 5.61868 9.47758C5.61868 5.70575 9.10235 1.66675 14.2882 1.66675C19.474 1.66675 22.9577 5.70575 22.9577 9.47758C22.9577 11.4177 23.4512 12.2402 23.975 13.1129C24.493 13.9739 25.0798 14.9516 25.0798 16.7996C24.6727 21.5211 19.7435 21.9061 14.2882 21.9061Z" fill="#235DFF"/>
</g>
<circle cx="21" cy="7.5" r="4" fill="#F75555"/>
</svg>
